<svg width="87" height="90" viewBox="0 0 87 90" fill="none" xmlns="http://www.w3.org/2000/svg">
<g clip-path="url(#clip0_1_571)">
<path d="M16.1909 15.8484C16.1909 16.4406 16.1909 16.8436 16.1909 17.2507C16.1909 23.0283 16.1666 28.8101 16.2112 34.5878C16.2193 35.6117 15.9556 35.9242 14.913 35.9037C11.4727 35.8297 8.02844 35.8502 4.5882 35.8955C3.77277 35.9078 3.54964 35.6323 3.54964 34.8468C3.56992 25.6848 3.53341 16.5187 3.57803 7.35667C3.59426 3.61044 5.55374 1.0403 8.88445 0.209636C10.3977 -0.168688 11.9068 -0.0165358 13.3227 0.653756C18.6332 3.15398 23.9314 5.67477 29.2338 8.19145C34.3536 10.6218 39.4572 13.0809 44.5891 15.4824C45.2869 15.8073 45.2747 16.2802 45.2747 16.8723C45.2707 30.3111 45.2747 43.7498 45.2747 57.1885C45.2747 61.1897 45.2626 65.1909 45.2869 69.1921C45.291 69.8665 45.0962 70.1626 44.4552 70.4586C41.3923 71.8609 38.374 73.3619 35.3313 74.8176C34.4875 75.2206 33.6315 75.5907 32.6335 76.0389C32.6335 75.5414 32.6335 75.1836 32.6335 74.8217C32.6335 58.4099 32.6254 41.9939 32.6578 25.582C32.6578 24.6485 32.3576 24.2085 31.5584 23.7973C26.6658 21.2765 21.8056 18.6899 16.9333 16.1321C16.7629 16.0417 16.5723 15.9964 16.195 15.8566L16.1909 15.8484Z" fill="#32A583"/>
<path d="M47.2505 68.9327V16.7528C48.1186 17.1394 48.9219 17.4642 49.6968 17.8425C53.5833 19.7259 57.4738 21.6093 61.336 23.5462C61.6484 23.7025 61.9486 24.2741 61.9283 24.6318C61.8715 25.6188 62.2407 26.0917 63.1575 26.4042C64.7478 26.947 66.2854 27.6502 67.8635 28.2341C68.1718 28.3493 68.5978 28.3246 68.9102 28.2053C70.7033 27.5268 72.4843 26.8154 74.2531 26.0752C74.5249 25.9642 74.7156 25.6558 75.0077 25.372C76.5574 26.1081 78.2005 26.873 79.8354 27.6625C81.9612 28.6906 84.0708 29.7598 86.2047 30.7714C86.7646 31.0345 86.9958 31.3553 86.9958 32.005C86.9715 39.2549 86.9877 46.5047 86.9633 53.7545C86.9633 54.0959 86.793 54.6304 86.5455 54.7538C82.6874 56.6701 78.8009 58.5329 74.6466 60.5397C75.1091 59.084 74.0949 58.7838 73.389 58.2821C71.9529 57.2664 70.4762 56.3 69.0522 55.2678C68.5654 54.9183 68.1718 54.8772 67.6891 55.2144C65.973 56.411 64.2245 57.5583 62.553 58.8167C62.2123 59.0758 61.9607 59.7502 62.0094 60.1943C62.1555 61.5266 61.6078 62.1887 60.4313 62.7315C56.2973 64.6355 52.2161 66.6546 48.1146 68.6202C47.8793 68.7312 47.6196 68.7929 47.2545 68.9204L47.2505 68.9327ZM56.0012 29.9654V55.8888C58.6057 54.4248 61.0804 53.0596 63.5186 51.6326C63.7863 51.4764 63.9851 50.9623 63.9892 50.6128C64.0176 45.1107 63.9973 39.6044 64.0257 34.1023C64.0257 33.469 63.7661 33.2017 63.2427 32.9837C61.8755 32.4204 60.5246 31.8118 59.1615 31.236C58.1513 30.8125 57.129 30.4136 56.0012 29.9613V29.9654ZM72.89 53.7792C73.3038 53.5859 73.6081 53.4667 73.888 53.3104C75.5635 52.3687 77.2146 51.39 78.9104 50.4894C79.4743 50.1893 79.6407 49.8274 79.6366 49.2064C79.6123 45.1395 79.5271 41.0642 79.6691 37.0014C79.7299 35.2989 79.2918 34.386 77.6406 33.8884C76.0503 33.4073 74.5452 32.6383 72.89 31.9516V53.7833V53.7792Z" fill="#32A583"/>
<path d="M3.61484 90.0002C3.59456 89.5684 3.5621 89.1736 3.5621 88.7748C3.5621 76.9768 3.5621 65.1747 3.5621 53.3768C3.5621 51.991 3.5621 51.991 4.9455 51.991C8.35329 51.991 11.7651 52.0156 15.1729 51.9704C15.9965 51.9581 16.2074 52.2459 16.2034 53.0273C16.1871 63.0816 16.1953 73.136 16.1709 83.1904C16.1709 83.5522 15.9356 84.1074 15.6516 84.2472C11.7895 86.18 7.90298 88.051 4.01647 89.9344C3.93534 89.9755 3.82986 89.9632 3.6189 89.9961L3.61484 90.0002Z" fill="#32A583"/>
<path d="M72.7078 64.1013C74.3224 64.1013 75.7707 64.1424 77.2109 64.0848C77.9898 64.0519 78.1967 64.3521 78.1886 65.0882C78.1562 67.3417 78.1521 69.5993 78.1886 71.8528C78.2008 72.6547 77.9168 72.9508 77.1298 72.9179C75.9533 72.8726 74.7687 72.9302 73.5881 72.9014C72.9349 72.885 72.6834 73.1605 72.6996 73.8102C72.7199 74.5258 72.6712 75.2454 72.6631 75.9609C72.655 76.989 72.0384 77.4701 71.1377 77.4989C69.2837 77.5565 67.4297 77.5523 65.5757 77.4989C64.4723 77.4701 64.0057 76.9437 64.0017 75.8088C63.9854 70.8206 63.9814 65.8325 64.0098 60.8444C64.0098 60.5319 64.2167 60.1124 64.4641 59.9315C65.5514 59.1255 66.667 58.3565 67.8192 57.6492C68.0748 57.4929 68.5819 57.5012 68.8497 57.6574C69.7178 58.1632 70.4846 58.8705 71.3771 59.3188C72.5374 59.8945 72.8497 60.7663 72.7199 61.9711C72.651 62.6373 72.7078 63.3158 72.7078 64.0972V64.1013Z" fill="#32A583"/>
<path d="M8.59213 49.9223C6.66916 49.9223 4.75025 49.9388 2.82729 49.9182C0.969231 49.8976 0.00369072 48.8819 -0.000366166 46.9821C-0.00442306 44.9342 -0.00847995 42.8863 -0.000366166 40.8343C0.00369072 38.992 1.02603 37.8694 2.8354 37.8571C6.81115 37.8242 10.791 37.8324 14.7667 37.8735C15.0629 37.8735 15.5051 38.2025 15.6308 38.4862C16.3124 40.0735 16.9453 41.6814 17.5295 43.3099C17.6593 43.6758 17.6349 44.1817 17.497 44.5559C16.9453 46.0856 16.2799 47.5783 15.7404 49.1122C15.5172 49.7455 15.1765 49.9388 14.5558 49.9305C12.5679 49.9059 10.58 49.9223 8.59213 49.9223Z" fill="#32A583"/>
<path d="M72.7041 20.125C72.7041 21.2847 72.6797 22.4443 72.7122 23.604C72.7325 24.266 72.5742 24.7307 71.8602 24.8746C71.6006 24.9281 71.3369 25.0391 71.1219 25.1913C68.7729 26.8362 66.6106 25.7012 64.4564 24.706C64.2373 24.6032 64.0345 24.1879 64.0304 23.9124C63.998 21.4574 63.998 18.9983 64.0183 16.5433C64.0264 15.5563 64.5578 15.0382 65.5193 15.03C67.3733 15.0135 69.2232 15.0135 71.0772 15.03C72.2132 15.0382 72.6513 15.4618 72.6878 16.6461C72.7243 17.8057 72.6959 18.9654 72.6959 20.125C72.6959 20.125 72.6959 20.125 72.7 20.125H72.7041Z" fill="#32A583"/>
</g>
<defs>
<clipPath id="clip0_1_571">
<rect width="87" height="90" fill="white"/>
</clipPath>
</defs>
</svg>
