<svg width="27" height="26" viewBox="0 0 27 26" fill="none" xmlns="http://www.w3.org/2000/svg">
<path d="M6.22719 5.92221H17.7827V7.07777H6.22719V5.92221ZM6.22719 11.7H12.0671V12.8555H6.22719V11.7ZM17.3335 8.8111H6.22719V9.96666H16.1787L17.3335 8.8111ZM9.6888 20.9964C9.88306 21.2192 10.1296 21.3902 10.4063 21.4941C10.683 21.5979 10.9812 21.6314 11.2741 21.5915H16.9096C17.0437 21.5915 17.1722 21.5383 17.2671 21.4435C17.3619 21.3487 17.4151 21.2201 17.4151 21.086C17.4151 20.9519 17.3619 20.8233 17.2671 20.7285C17.1722 20.6337 17.0437 20.5804 16.9096 20.5804H11.2741C10.6161 20.5689 10.7331 19.9976 10.8256 19.8207C10.9461 19.613 11.04 19.391 11.1051 19.1598C11.1483 18.9738 11.1279 18.7788 11.0473 18.6057C10.9666 18.4327 10.8304 18.2916 10.6602 18.205C10.3868 18.0819 10.0806 18.0517 9.78838 18.1191C9.4962 18.1866 9.23417 18.3479 9.04241 18.5784C8.79397 18.8348 8.44874 19.227 8.11797 19.6083C8.32235 18.8074 8.58741 17.7797 8.84741 16.7772C8.92192 16.5488 8.90708 16.3006 8.8059 16.0827C8.70472 15.8648 8.5247 15.6933 8.30213 15.6029C8.05565 15.5183 7.78625 15.5304 7.54833 15.6367C7.3104 15.743 7.12166 15.9356 7.02019 16.1756C6.70819 16.7758 4.23819 20.9148 4.21363 20.9567C4.17958 21.0137 4.1571 21.0769 4.14745 21.1426C4.13781 21.2082 4.1412 21.2752 4.15743 21.3396C4.17366 21.404 4.20241 21.4645 4.24204 21.5178C4.28167 21.5711 4.33141 21.616 4.38841 21.65C4.50353 21.7188 4.64125 21.739 4.77127 21.7063C4.9013 21.6735 5.01298 21.5904 5.08174 21.4753C5.17419 21.32 7.14585 18.0173 7.76769 16.9144C7.29969 18.72 6.78402 20.7292 6.75369 20.9098C6.71954 21.0425 6.72979 21.1828 6.78287 21.3092C6.83595 21.4355 6.92894 21.5411 7.04763 21.6096C7.17984 21.6752 7.33011 21.6949 7.47474 21.6656C7.61937 21.6363 7.75014 21.5597 7.84641 21.4478C7.93741 21.3655 8.10785 21.1698 8.53758 20.6707C8.93795 20.1998 9.34802 19.7373 9.76752 19.2833C9.92497 19.1172 10.0203 19.1909 9.92785 19.3541C9.74702 19.5826 9.62975 19.8548 9.5879 20.1432C9.54605 20.4316 9.58038 20.7259 9.6888 20.9964Z" fill="#FB896B"/>
<path d="M20.6717 15.6686V23.1111H3.33837V2.8889H20.6717V6.49496L21.6323 5.5344C21.7801 5.38856 21.9422 5.25791 22.1161 5.1444V2.16668C22.1161 1.97513 22.0401 1.79143 21.9046 1.65599C21.7692 1.52055 21.5855 1.44446 21.3939 1.44446H2.61614C2.4246 1.44446 2.2409 1.52055 2.10545 1.65599C1.97001 1.79143 1.89392 1.97513 1.89392 2.16668V23.8333C1.89392 24.0249 1.97001 24.2086 2.10545 24.344C2.2409 24.4795 2.4246 24.5556 2.61614 24.5556H21.3939C21.5855 24.5556 21.7692 24.4795 21.9046 24.344C22.0401 24.2086 22.1161 24.0249 22.1161 23.8333V15.4751C21.6732 15.7098 21.1609 15.7785 20.6717 15.6686Z" fill="#FB896B"/>
<path d="M25.0975 8.56628L24.7198 8.18856C24.9128 7.93344 25.0105 7.61883 24.996 7.29924C24.9815 6.97964 24.8557 6.67519 24.6403 6.43861C24.3608 6.19221 23.9952 6.06626 23.6232 6.08817C23.2512 6.11008 22.9029 6.2781 22.6542 6.55561L13.6084 15.6L13.0039 17.8692C12.9943 17.8989 12.9931 17.9307 13.0005 17.961C13.0079 17.9913 13.0235 18.019 13.0456 18.041C13.0678 18.0629 13.0956 18.0784 13.1259 18.0855C13.1563 18.0927 13.188 18.0913 13.2177 18.0816L15.4789 17.4698L23.9231 9.02561L24.2799 9.38311C24.3048 9.408 24.3246 9.43755 24.3381 9.47008C24.3516 9.50261 24.3585 9.53748 24.3585 9.57269C24.3585 9.60791 24.3516 9.64278 24.3381 9.67531C24.3246 9.70784 24.3048 9.73739 24.2799 9.76228L20.7288 13.3134C20.6204 13.4219 20.5596 13.5689 20.5597 13.7221C20.5598 13.8754 20.6207 14.0223 20.7291 14.1306C20.8375 14.239 20.9845 14.2998 21.1378 14.2997C21.291 14.2996 21.438 14.2387 21.5463 14.1303L25.0975 10.5791C25.3644 10.312 25.5143 9.94991 25.5143 9.57233C25.5143 9.19475 25.3644 8.83262 25.0975 8.56555V8.56628Z" fill="#FB896B"/>
</svg>
